{
  "accessors": [
    {
      "bufferView": 2,
      "componentType": 5126,
      "count": 1908,
      "max": [
        1.3271100521087646,
        1.4240399599075317,
        4.272059917449951
      ],
      "min": [
        -0.8131600022315979,
        -2.506920099258423,
        0.006169999949634075
      ],
      "type": "VEC3"
    },
    {
      "bufferView": 2,
      "byteOffset": 22896,
      "componentType": 5126,
      "count": 1908,
      "max": [
        1.0,
        0.9999541640281677,
        1.0
      ],
      "min": [
        -1.0,
        -0.9999343156814575,
        -0.9970302581787109
      ],
      "type": "VEC3"
    },
    {
      "bufferView": 1,
      "componentType": 5126,
      "count": 1908,
      "max": [
        0.7604399919509888,
        0.9783599972724915
      ],
      "min": [
        0.07807999849319458,
        0.0037299999967217445
      ],
      "type": "VEC2"
    },
    {
      "bufferView": 0,
      "componentType": 5125,
      "count": 2880,
      "type": "SCALAR"
    }
  ],
  "asset": {
    "extras": {
      "author": "nolanfa (https://sketchfab.com/nolanfa)",
      "license": "CC-BY-4.0 (http://creativecommons.org/licenses/by/4.0/)",
      "source": "https://sketchfab.com/3d-models/photographer-8b11c87a4fff43e1892e44ff626b661d",
      "title": "Photographer"
    },
    "generator": "Sketchfab-12.67.0",
    "version": "2.0"
  },
  "bufferViews": [
    {
      "buffer": 0,
      "byteLength": 11520,
      "name": "floatBufferViews",
      "target": 34963
    },
    {
      "buffer": 0,
      "byteLength": 15264,
      "byteOffset": 11520,
      "byteStride": 8,
      "name": "floatBufferViews",
      "target": 34962
    },
    {
      "buffer": 0,
      "byteLength": 45792,
      "byteOffset": 26784,
      "byteStride": 12,
      "name": "floatBufferViews",
      "target": 34962
    }
  ],
  "buffers": [
    {
      "byteLength": 72576,
      "uri": "scene.bin"
    }
  ],
  "images": [
    {
      "uri": "textures/Material_baseColor.png"
    }
  ],
  "materials": [
    {
      "doubleSided": true,
      "emissiveFactor": [
        1.0,
        1.0,
        1.0
      ],
      "emissiveTexture": {
        "index": 0
      },
      "name": "Material",
      "pbrMetallicRoughness": {
        "baseColorFactor": [
          0.8,
          0.8,
          0.8,
          1.0
        ],
        "baseColorTexture": {
          "index": 0
        },
        "metallicFactor": 0.0,
        "roughnessFactor": 0.6
      }
    }
  ],
  "meshes": [
    {
      "name": "photographer.001_0",
      "primitives": [
        {
          "attributes": {
            "NORMAL": 1,
            "POSITION": 0,
            "TEXCOORD_0": 2
          },
          "indices": 3,
          "material": 0,
          "mode": 4
        }
      ]
    }
  ],
  "nodes": [
    {
      "children": [
        1
      ],
      "matrix": [
        0.282398521900177,
        0.0,
        0.0,
        0.0,
        0.0,
        6.27050682267376e-17,
        -0.282398521900177,
        0.0,
        0.0,
        0.282398521900177,
        6.27050682267376e-17,
        0.0,
        0.0,
        0.0,
        0.0,
        1.0
      ],
      "name": "Sketchfab_model"
    },
    {
      "children": [
        2
      ],
      "name": "Root"
    },
    {
      "children": [
        3
      ],
      "name": "photographer.001"
    },
    {
      "mesh": 0,
      "name": "photographer.001_0"
    }
  ],
  "samplers": [
    {
      "magFilter": 9729,
      "minFilter": 9987,
      "wrapS": 10497,
      "wrapT": 10497
    }
  ],
  "scene": 0,
  "scenes": [
    {
      "name": "Sketchfab_Scene",
      "nodes": [
        0
      ]
    }
  ],
  "textures": [
    {
      "sampler": 0,
      "source": 0
    }
  ]
}
